<svg version="1" xmlns="http://www.w3.org/2000/svg" width="346.667" height="346.667" viewBox="0 0 260.000000 260.000000"><path d="M41.5 1.2c-8.5 1.6-19 7.3-25.9 14.1C8.4 22.4 2.8 32.8 1.1 42.4c-1.5 8.2-1.5 167 0 175.2 3.6 20.2 21.1 37.7 41.3 41.3 8.2 1.5 167 1.5 175.2 0 20.2-3.6 37.7-21.1 41.3-41.3 1.5-8.2 1.5-167 0-175.2-3.6-20.2-21.1-37.7-41.3-41.3C210-.3 48.8-.2 41.5 1.2zM117 54c2.2 1.1 4.6 3.3 5.4 4.8 2.3 4.4 30.8 112.3 30.9 116.9 0 4.6-2 8.4-6 11-1.4.9-13.9 4.8-27.7 8.5-45.7 12.4-47.8 12.9-51.5 11.8-4-1.1-7.9-4.5-9.3-8-.5-1.3-7.6-27.6-15.9-58.3C26.4 78.9 26.7 80.6 33 74.5c2.6-2.5 7.7-4.1 38.7-12.6 19.7-5.3 37.1-9.8 38.6-9.8 1.5-.1 4.6.8 6.7 1.9zm72.3 8.3c48.4 13 46 9.9 35.7 48.4-18.2 68.2-23.9 88.5-25.4 90.8-2.1 3.1-6.7 5.5-10.9 5.7-2.7.1-31.2-6.8-32.6-7.8-.2-.2 1.7-2.6 4.3-5.5 5.6-6.3 8.2-13.7 7.2-21.3-.3-2.8-7.3-29.7-15.4-59.8L137.4 58l2-1.9c3.2-3 6.7-4.1 11.1-3.6 2.2.2 19.6 4.7 38.8 9.8z"/></svg>