<svg xmlns="http://www.w3.org/2000/svg" viewBox="0 0 1051 975"><g fill="none" fill-rule="evenodd"><g opacity="0.5" stroke="#FFF"><path d="M322.219-232.65l167.61 167.609c3.952 3.952 4.99 5.79 5.664 8.01a11.19 11.19 0 010 6.582c-.673 2.22-1.712 4.058-5.665 8.01h0l-233.37 233.37c-3.953 3.953-5.79 4.992-8.01 5.665a11.19 11.19 0 01-6.583 0c-2.22-.673-4.057-1.712-8.01-5.665h0L66.247 23.321c-3.952-3.952-4.992-5.789-5.664-8.009a11.19 11.19 0 010-6.583c.672-2.22 1.712-4.057 5.664-8.01h0l233.37-233.37c3.953-3.952 5.79-4.991 8.01-5.664a11.19 11.19 0 016.583 0c2.22.673 4.057 1.712 8.01 5.664h0z" fill="none"/><rect x=".429" y=".429" width="226.143" height="127.143" rx="4.286" transform="rotate(45 413.732 267.33)" stroke-width=".857"/><path d="M694.864-152.748l167.61 167.61c3.952 3.952 4.991 5.79 5.664 8.01a11.19 11.19 0 010 6.583c-.673 2.22-1.712 4.057-5.664 8.009h0l-233.371 233.37c-3.952 3.953-5.79 4.992-8.01 5.665a11.19 11.19 0 01-6.583 0c-2.22-.673-4.057-1.712-8.01-5.664h0l-167.609-167.61c-3.952-3.952-4.991-5.79-5.664-8.01a11.19 11.19 0 010-6.583c.673-2.22 1.712-4.057 5.664-8.01h0l233.37-233.37c3.953-3.952 5.79-4.991 8.01-5.664a11.19 11.19 0 016.583 0c2.22.673 4.058 1.712 8.01 5.664h0z" fill="none"/><rect x=".429" y=".429" width="226.143" height="127.143" rx="4.286" transform="rotate(45 503.603 757.105)" stroke-width=".857"/><path d="M402.829 139.287l167.61 167.61c3.952 3.952 4.991 5.79 5.664 8.01a11.19 11.19 0 010 6.583c-.673 2.22-1.712 4.057-5.665 8.01h0l-233.37 233.37c-3.953 3.952-5.79 4.991-8.01 5.664a11.19 11.19 0 01-6.583 0c-2.22-.673-4.057-1.712-8.01-5.664h0L146.857 395.26c-3.952-3.952-4.991-5.79-5.664-8.01a11.19 11.19 0 010-6.583c.673-2.22 1.712-4.057 5.664-8.01h0l233.37-233.37c3.953-3.952 5.79-4.991 8.01-5.664a11.19 11.19 0 016.583 0c2.22.673 4.057 1.712 8.01 5.664h0z" fill="none"/><rect x=".429" y=".429" width="226.143" height="127.143" rx="4.286" transform="rotate(45 5.068 550.605)" stroke-width=".857"/><path d="M1119.128-124.463l167.61 167.61c3.952 3.952 4.991 5.789 5.664 8.009a11.19 11.19 0 010 6.583c-.673 2.22-1.712 4.057-5.664 8.01h0l-233.37 233.37c-3.953 3.952-5.79 4.991-8.01 5.664a11.19 11.19 0 01-6.584 0c-2.22-.673-4.057-1.712-8.009-5.664h0l-167.61-167.61c-3.952-3.952-4.991-5.79-5.664-8.01a11.19 11.19 0 010-6.582c.673-2.22 1.712-4.057 5.664-8.01h0l233.37-233.37c3.953-3.953 5.79-4.992 8.01-5.665a11.19 11.19 0 016.584 0c2.22.673 4.057 1.712 8.009 5.665h0z" fill="none"/><rect x=".429" y=".429" width="226.143" height="127.143" rx="4.286" transform="rotate(45 681.593 1283.379)" stroke-width=".857"/><g><path d="M827.093 167.572l167.61 167.61c3.952 3.952 4.991 5.789 5.664 8.009a11.19 11.19 0 010 6.583c-.673 2.22-1.712 4.057-5.664 8.01h0l-233.371 233.37c-3.952 3.952-5.79 4.992-8.01 5.664a11.19 11.19 0 01-6.583 0c-2.22-.672-4.057-1.712-8.01-5.664h0L571.12 423.544c-3.952-3.952-4.991-5.79-5.664-8.01a11.19 11.19 0 010-6.582c.673-2.22 1.712-4.057 5.664-8.01h0l233.37-233.37c3.953-3.953 5.79-4.992 8.01-5.665a11.19 11.19 0 016.583 0c2.22.673 4.057 1.712 8.01 5.665h0z" fill="none"/><rect x=".429" y=".429" width="226.143" height="127.143" rx="4.286" transform="rotate(45 183.058 1076.879)" stroke-width=".857"/></g><g><path d="M535.093 459.572l167.61 167.61c3.952 3.952 4.991 5.789 5.664 8.009a11.19 11.19 0 010 6.583c-.673 2.22-1.712 4.057-5.664 8.01h0l-233.371 233.37c-3.952 3.952-5.79 4.992-8.01 5.664a11.19 11.19 0 01-6.583 0c-2.22-.672-4.057-1.712-8.01-5.664h0L279.12 715.544c-3.952-3.952-4.991-5.79-5.664-8.01a11.19 11.19 0 010-6.582c.673-2.22 1.712-4.057 5.664-8.01h0l233.37-233.37c3.953-3.953 5.79-4.992 8.01-5.665a11.19 11.19 0 016.583 0c2.22.673 4.057 1.712 8.01 5.665h0z" fill="none"/><rect x=".429" y=".429" width="226.143" height="127.143" rx="4.286" transform="rotate(45 -315.417 870.404)" stroke-width=".857"/></g><g><path d="M1199.738 247.475l167.61 167.61c3.952 3.952 4.991 5.789 5.664 8.009a11.19 11.19 0 010 6.583c-.673 2.22-1.712 4.057-5.664 8.01h0l-233.37 233.37c-3.953 3.952-5.79 4.992-8.01 5.664a11.19 11.19 0 01-6.583 0c-2.22-.672-4.057-1.712-8.01-5.664h0l-167.61-167.61c-3.952-3.952-4.991-5.79-5.664-8.01a11.19 11.19 0 010-6.582c.673-2.22 1.712-4.057 5.665-8.01h0l233.37-233.37c3.952-3.953 5.79-4.992 8.01-5.665a11.19 11.19 0 016.583 0c2.22.673 4.057 1.712 8.01 5.665h0z" fill="none"/><rect x=".429" y=".429" width="226.143" height="127.143" rx="4.286" transform="rotate(45 272.929 1566.653)" stroke-width=".857"/></g><g><path d="M907.703 539.51l167.61 167.61c3.952 3.952 4.991 5.79 5.664 8.009a11.19 11.19 0 010 6.583c-.673 2.22-1.712 4.057-5.664 8.01h0l-233.37 233.37c-3.953 3.953-5.79 4.992-8.01 5.665a11.19 11.19 0 01-6.584 0c-2.22-.673-4.057-1.712-8.009-5.665h0l-167.61-167.61c-3.952-3.952-4.991-5.79-5.664-8.009a11.19 11.19 0 010-6.583c.673-2.22 1.712-4.057 5.664-8.01h0l233.371-233.37c3.952-3.953 5.79-4.992 8.01-5.665a11.19 11.19 0 016.583 0c2.22.673 4.057 1.712 8.01 5.665h0z" fill="none"/><rect x=".429" y=".429" width="226.143" height="127.143" rx="4.286" transform="rotate(45 -225.606 1360.153)" stroke-width=".857"/></g></g></g></svg>