<svg viewBox="0 0 100 100" width="20" height="20" xmlns="http://www.w3.org/2000/svg"><path d="M87.44 32.05V16.86a6.09 6.09 0 00-6.12-6.05h-.51a6.09 6.09 0 00-6.12 6.05v1.3L63.6 6.11a18.21 18.21 0 00-27.2 0L4.18 41.15c-7.47 8.14-4.68 14.8 6.22 14.8h6.69V84.2c0 4.18 1.7 8.2 4.68 11.15A16.1 16.1 0 0033.06 100h33.88a16.12 16.12 0 0011.28-4.64 15.77 15.77 0 004.69-11.15V55.96h6.69c10.89 0 13.68-6.66 6.2-14.8l-8.36-9.11zM65.69 76.8a10.44 10.44 0 01-10.47 10.36H44.78A10.44 10.44 0 0134.31 76.8V66.5a10.44 10.44 0 0110.47-10.36h10.44A10.44 10.44 0 0165.7 66.5V76.8z" fill="currentColor" fill-rule="nonzero"/></svg>