<svg viewBox="0 0 100 100" xmlns="http://www.w3.org/2000/svg"><g fill="currentColor" fill-rule="nonzero"><path d="M71.87 60.511V75.82c0 .903.042 1.831-.06 2.726.073-.537.142-1.078.211-1.627a8.275 8.275 0 01-.529 1.973c.204-.488.407-.976.61-1.457a8.283 8.283 0 01-1.008 1.73c.317-.407.643-.822.956-1.229a8.185 8.185 0 01-1.404 1.404c.407-.318.822-.643 1.229-.956a8.25 8.25 0 01-1.73 1.009c.489-.204.977-.407 1.457-.61a7.83 7.83 0 01-1.973.528c.537-.073 1.078-.142 1.627-.211-.752.09-1.526.06-2.286.06H21.126c-2.177 0-4.354.009-6.531 0-.346 0-.684-.02-1.025-.06.537.073 1.078.142 1.627.211a8.275 8.275 0 01-1.973-.529c.488.204.976.407 1.456.61a8.283 8.283 0 01-1.729-1.008c.407.317.822.643 1.229.956a8.185 8.185 0 01-1.404-1.404c.317.407.643.822.956 1.229a8.25 8.25 0 01-1.009-1.73c.204.489.407.977.61 1.457a7.83 7.83 0 01-.528-1.973c.073.537.142 1.078.211 1.627-.09-.752-.06-1.526-.06-2.286V28.415c0-2.177-.01-4.354 0-6.531 0-.346.02-.684.06-1.025-.073.537-.142 1.078-.211 1.627.089-.683.276-1.334.528-1.973-.203.488-.406.976-.61 1.456a8.283 8.283 0 011.01-1.729c-.318.407-.644.822-.957 1.229a8.185 8.185 0 011.404-1.404c-.407.317-.822.643-1.229.956a8.25 8.25 0 011.73-1.009c-.489.204-.977.407-1.457.61a7.83 7.83 0 011.973-.528c-.537.073-1.078.142-1.627.211 1.35-.163 2.766-.06 4.13-.06h27.75c1.465 0 2.93.02 4.395 0h.06c1.567 0 3.207-.685 4.314-1.791 1.058-1.058 1.851-2.8 1.79-4.313-.073-1.58-.59-3.215-1.79-4.314-1.188-1.098-2.665-1.79-4.313-1.79H15.829c-.713 0-1.433-.033-2.137.049-2.461.252-4.903.875-6.917 2.392-.66.5-1.343.985-1.933 1.567-.44.44-.805.928-1.18 1.416-.366.468-.732.936-1.037 1.445-.428.74-.753 1.578-1.066 2.36-.631 1.578-.814 3.328-.814 5.013v52.095c0 2.165-.074 4.264.386 6.409.509 2.368 1.844 4.59 3.48 6.34.813.874 1.81 1.627 2.827 2.258.305.195.619.358.948.5.782.358 1.587.724 2.41.956 1.403.407 2.88.517 4.333.517H67.386c2.312 0 4.72.13 6.938-.619 2.279-.773 4.496-2.022 6.083-3.865.781-.916 1.587-1.912 2.108-3.02.5-1.09 1.017-2.217 1.212-3.397.285-1.741.326-3.296.326-5.037V60.503c0-1.567-.684-3.207-1.79-4.314-1.058-1.057-2.8-1.85-4.314-1.79-1.578.073-3.214.59-4.313 1.79-1.074 1.2-1.766 2.666-1.766 4.322zM99.227 35.336V14.165c0-3.296-2.8-6.104-6.103-6.104H71.952c-1.567 0-3.206.684-4.313 1.79-1.058 1.059-1.852 2.8-1.79 4.314.073 1.579.59 3.214 1.79 4.313 1.188 1.099 2.665 1.79 4.313 1.79h21.172l-6.104-6.103v21.171c0 1.567.684 3.207 1.79 4.314 1.058 1.058 2.8 1.85 4.314 1.79 1.578-.073 3.214-.59 4.313-1.79 1.098-1.193 1.79-2.657 1.79-4.314z"/><path d="M49.34 66.574l4.794-4.793 11.507-11.508 25.88-25.879c1.953-1.953 3.914-3.874 5.85-5.851l.082-.081c1.107-1.107 1.79-2.747 1.79-4.314 0-1.497-.659-3.283-1.79-4.313-1.16-1.066-2.685-1.863-4.313-1.79-1.62.073-3.141.618-4.313 1.79l-4.794 4.794-11.507 11.507-25.879 25.88c-1.953 1.952-3.914 3.873-5.851 5.85l-.082.082c-1.106 1.106-1.79 2.746-1.79 4.313 0 1.497.66 3.283 1.79 4.313 1.16 1.066 2.686 1.864 4.314 1.79 1.615-.069 3.14-.622 4.313-1.79z"/></g></svg>