<svg xmlns="http://www.w3.org/2000/svg" viewBox="0 0 24 24"><path fill="currentColor" fill-rule="nonzero" d="M12 2.16c3.2 0 3.58.01 4.85.07 3.25.15 4.77 1.7 4.92 4.92.06 1.27.07 1.65.07 4.85 0 3.2-.01 3.59-.07 4.85-.15 3.22-1.66 4.77-4.92 4.92-1.27.06-1.64.07-4.85.07a83 83 0 0 1-4.85-.07c-3.26-.15-4.77-1.7-4.92-4.92A82.98 82.98 0 0 1 2.16 12a84 84 0 0 1 .07-4.85c.15-3.23 1.67-4.77 4.92-4.92A84.4 84.4 0 0 1 12 2.16zM12 0C8.74 0 8.33.01 7.05.07 2.7.27.27 2.7.07 7.05A84.29 84.29 0 0 0 0 12c0 3.26.01 3.67.07 4.95.2 4.36 2.62 6.78 6.98 6.98 1.28.06 1.7.07 4.95.07 3.26 0 3.67-.01 4.95-.07 4.35-.2 6.78-2.62 6.98-6.98.06-1.28.07-1.7.07-4.95 0-3.26-.01-3.67-.07-4.95C23.73 2.7 21.3.27 16.95.07A84.33 84.33 0 0 0 12 0zm0 5.84a6.16 6.16 0 1 0 0 12.32 6.16 6.16 0 0 0 0-12.32zM12 16a4 4 0 1 1 0-8 4 4 0 0 1 0 8zm6.4-11.84a1.44 1.44 0 1 0 0 2.88 1.44 1.44 0 0 0 0-2.88z"></path></svg>