<svg width="353" height="178" viewBox="0 0 353 178" fill="none" xmlns="http://www.w3.org/2000/svg">
  <g clip-path="url(#a)">
    <path d="M353 0H0v178h353V0Z" fill="#C50C0E"/>
    <path d="M22.093 23.815H37.99v23.21l19.748-23.21h18.85L54.873 48.417l22.457 32.61H58.235l-14.428-21.25-5.818 6.454v14.796H22.093V23.815ZM84.378 23.815h15.896v43.32h27.786v13.892H84.378V23.815ZM192.728 23.815h15.978v57.212h-15.978V23.815Zm-55.817 0h46.147V37.3h-30.415v8.668h27.542v12.5h-27.542v9.074h30.822v13.485h-46.554V23.815ZM220.019 23.815h14.835l23.599 30.242V23.815h15.733v57.212h-13.929l-24.506-31.38v31.38h-15.732V23.815ZM285.172 23.815h46.137V37.3h-30.404v8.667h27.532v12.5h-27.532v9.075h30.812v13.485h-46.545V23.815ZM21.01 149.995l31.139-47.487H22.16V96.95h37.937v4.167l-31.14 47.486h31.14v5.559H21.01v-4.167ZM117.467 96.95h6.145v57.212h-6.145V96.95Zm-46.138 0h34.991v5.64H77.473v19.948h25.893v5.55H77.473v20.435h29.255v5.639H71.329V96.95ZM149.345 102.67h-16.059v-5.721h38.354v5.721h-16.141v51.491h-6.154V102.67ZM180.991 132.827V96.954h6.144v35.711c0 10.791 5.492 16.757 14.509 16.757 8.765 0 14.337-5.64 14.337-16.514V96.954h6.145V132.5c0 14.715-8.273 22.56-20.645 22.56-12.216 0-20.49-7.845-20.49-22.234ZM234.117 96.95h5.819l29.997 45.029V96.95h6.064v57.212h-5.166l-30.732-46.095v46.095h-5.982V96.95ZM287.038 125.883v-.569c0-16.595 10.485-29.176 25.566-29.176 7.458 0 12.461 2.124 17.373 6.129l-3.688 4.898c-3.526-3.1-7.622-5.306-13.848-5.306-10.893 0-19.013 9.807-19.013 23.455v.407c0 14.379 7.793 23.698 19.584 23.698 4.921 0 9.425-1.799 12.379-4.085v-16.097h-14.346v-5.477h20.246v24.511c-4.423 3.606-10.902 6.707-18.524 6.707-15.652-.001-25.729-11.849-25.729-29.095Z" fill="#fff"/>
  </g>
  <defs>
    <clipPath id="a">
      <path fill="#fff" d="M0 0h353v178H0z"/>
    </clipPath>
  </defs>
</svg>
