<svg viewBox="0 0 100 100" xmlns="http://www.w3.org/2000/svg"><path d="M48.314 8.156c3.898-2.852 9.263-.108 9.263 4.754v74.285c0 4.754-5.37 7.499-9.263 4.647L20.526 71.13a6.581 6.581 0 00-3.893-1.267H5.789A5.782 5.782 0 010 64.053V35.943c0-3.17 2.525-5.81 5.79-5.81l10.843-.005a6.59 6.59 0 003.893-1.267L48.314 8.155zM83.79 20.413c2.422-1.692 5.683-1.164 7.369 1.267 5.79 8.346 8.84 18.173 8.84 28.421 0 10.248-3.05 20.075-8.84 28.42-1.053 1.482-2.632 2.221-4.318 2.221-1.052 0-2.105-.318-2.944-.739-2.422-1.692-3.055-4.965-1.37-7.396 4.528-6.658 6.95-14.367 6.95-22.399 0-8.135-2.422-15.849-6.95-22.399-1.685-2.43-1.159-5.704 1.263-7.396zM71.052 36.786c2.739-1.057 5.683.317 6.842 2.856 1.156 3.273 1.789 6.76 1.789 10.248 0 3.59-.526 6.97-1.789 10.248a5.329 5.329 0 01-4.946 3.38 5.97 5.97 0 01-1.896-.318c-2.734-.949-4.103-4.011-3.05-6.76a18.82 18.82 0 001.159-6.447c0-2.22-.424-4.441-1.16-6.447-1.052-2.642.313-5.704 3.051-6.76z" fill="currentColor" fill-rule="nonzero"/></svg>