<svg xmlns="http://www.w3.org/2000/svg" xmlns:xlink="http://www.w3.org/1999/xlink" viewBox="0 0 780.3 459"><defs><linearGradient id="a" x1=".71" x2="311.1" y1="72.13" y2="332.58" gradientUnits="userSpaceOnUse"><stop offset=".3" stop-color="#f6f6f6"/><stop offset=".98" stop-color="#bdbcbc"/></linearGradient><linearGradient id="b" x1="51.26" x2="361.65" y1="72.13" y2="332.58" gradientTransform="matrix(-1 0 0 1 830.85 0)" xlink:href="#a"/><linearGradient id="c" x1="604.79" x2="374.71" y1="430.2" y2="113.51" gradientUnits="userSpaceOnUse"><stop offset="0" stop-color="#f6f6f6"/><stop offset="1" stop-color="#c6c6c6"/></linearGradient><linearGradient id="d" x1="137.7" x2="600.48" y1="229.5" y2="229.5" gradientUnits="userSpaceOnUse"><stop offset="0" stop-color="#fff"/><stop offset="1" stop-color="#f0f0f0"/></linearGradient></defs><path fill="url(#a)" d="M213.15 55.71l-.35.21C192.73 22.55 156.53 0 114.75 0a114.14 114.14 0 0 0-98 173.58l-.35.21 137.7 229.5 196.8-118.08z"/><path fill="url(#b)" d="M567.15 55.71l.35.21C587.57 22.55 623.77 0 665.55 0a114.14 114.14 0 0 1 98.05 173.58l.35.21-137.7 229.5-196.8-118.08z"/><path fill="url(#c)" d="M625.9 285.42l.35-.21-137.7-229.5-196.8 118.08 137.7 229.5.36-.21c20.06 33.36 56.27 55.92 98 55.92a114.14 114.14 0 0 0 98-173.58z"/><path fill="url(#d)" d="M488.55 55.71A114 114 0 0 0 390.15 0c-41.78 0-78 22.55-98 55.92l-.35-.21-137.7 229.5.35.21a114.14 114.14 0 0 0 98 173.58c41.78 0 78-22.55 98.05-55.92l.35.21 97.3-162.16c6.19-10 56.25-83.24 152.33 1.14z"/></svg>
